# xmcd
#
# Track frame offsets:
#  150
#  14639
#  43291
#  60878
#  77589
#  94760
#  114919
#  127664
#  144764
#  177676
#  193459
#  213586
#
# Disc length: 3075 seconds
#
# Revision: 0
# Processed by: cddbd v1.5.2PL0 Copyright (c) Steve Scherf et al.
# Submitted via: Collectorz.com_Music_Collector 6.11
#
DISCID=a40c010c
DTITLE=Johnny Winter - The Progressive Blues Experiment (+Bonus)
DYEAR=2000
DGENRE=Blues - Blues Rock
TTITLE0=Rollin' and Tumblin'
TTITLE1=Tribute to Muddy
TTITLE2=I Got Love If You Want It
TTITLE3=Bad Luck and Trouble
TTITLE4=Help Me
TTITLE5=Mean Town Blues
TTITLE6=Broke Down Engine
TTITLE7=Black Cat Bone
TTITLE8=It's My Own Fault
TTITLE9=Forty-Four
TTITLE10=Mean Town Blues (single version)
TTITLE11=Black cat Bone (single version)
EXTD=
EXTT0=
EXTT1=
EXTT2=
EXTT3=
EXTT4=
EXTT5=
EXTT6=
EXTT7=
EXTT8=
EXTT9=
EXTT10=
EXTT11=
PLAYORDER=
